# xmcd CD database file
#
# Track frame offsets:
#	150
#	21582
#	47984
#	73663
#	90964
#	112028
#	116726
#	134801
#	160359
#	186411
#
# Disc length: 2828 seconds
#
# Revision: 4
# Processed by: cddbd v1.5.2PL0 Copyright (c) Steve Scherf et al.
# Submitted via: CDex 1.51
#
DISCID=990b0a0a
DTITLE=Dan Barta - Illustratosphere
DYEAR=2000
DGENRE=Jazz
TTITLE0=Na i v ni
TTITLE1=Panvi
TTITLE2=Predpokladam
TTITLE3=Kontrabasnik
TTITLE4=Nema era
TTITLE5=Dna a pan Touha
TTITLE6=Wo-Ba-Si-U
TTITLE7=In Strumo
TTITLE8=Puvodne pavi
TTITLE9=Diveni
EXTD=YEAR: 2000
EXTT0=
EXTT1=
EXTT2=
EXTT3=
EXTT4=
EXTT5=
EXTT6=
EXTT7=
EXTT8=
EXTT9=
PLAYORDER=
